# xmcd
#
# Track frame offsets: 
#        182
#        21352
#        40147
#        66117
#        78640
#        90132
#        110370
#        130705
#        149217
#        160752
#        172940
#        184690
#        200302
#        217030
#        235695
#        251900
#
# Disc length: 3552 seconds
#
# Revision: 6
# Processed by: cddbd v1.5.2PL0 Copyright (c) Steve Scherf et al.
# Submitted via: ExactAudioCopy v1.0b3
#
DISCID=d90dde10
DTITLE=Various Artist - Kindred Spirit
DYEAR=1995
DGENRE=Folk
TTITLE0=Loreena McKennitt - Dickens' Dublin (The Palace)
TTITLE1=Orion - Wailing Reel
TTITLE2=Dan Ar Braz - The Broken Prayer
TTITLE3=Tannas - Sabbal Ia'nIc Uisdean
TTITLE4=Bagad Kemper - Suite d'airs a danser du paysde l'Ouest et du L
TTITLE4=ié
TTITLE5=Barzaz - Koat-houarn ha Fañchig bihan
TTITLE6=Dafydd Iwan - Yma o Hyd
TTITLE7=Michel Tonnerre - Le Vieux
TTITLE8=Capercaillie - Alasdair Mhic Cholla Ghasda
TTITLE9=Skolvan - Bal Plinn du vertige
TTITLE10=Seosaimhin Ni Bheaglaoich - Bheadh Buachaillin Deas ag Sile
TTITLE11=Milladoiro - Maneo Da Ulla-Foliada de Padrenda
TTITLE12=Altan - Dulaman
TTITLE13=Gilles Servat - Maro Pontkaleg
TTITLE14=Déanta - Ready for the Storm
TTITLE15=Shotts and Dykehead Caledonia Pipe Band - The Walrus
EXTD=YEAR: 1995
EXTT0=
EXTT1=
EXTT2=
EXTT3=
EXTT4=
EXTT5=
EXTT6=
EXTT7=
EXTT8=
EXTT9=
EXTT10=
EXTT11=
EXTT12=
EXTT13=
EXTT14=
EXTT15=
PLAYORDER=
